<svg width="36" height="37" viewBox="0 0 36 37" fill="none" xmlns="http://www.w3.org/2000/svg">
<g clip-path="url(#clip0_714_33)">
<path fill-rule="evenodd" clip-rule="evenodd" d="M4.24109 1.64984C4.63478 1.25674 5.10752 0.951792 5.62798 0.755214C6.14844 0.558635 6.70474 0.47491 7.26 0.509588C7.81527 0.544265 8.35682 0.696553 8.84878 0.956359C9.34074 1.21617 9.77186 1.57756 10.1136 2.01659L14.1523 7.20509C14.8926 8.15684 15.1536 9.39659 14.8611 10.5666L13.6303 15.4941C13.5672 15.7493 13.5708 16.0165 13.641 16.27C13.7111 16.5234 13.8454 16.7544 14.0308 16.9408L19.5591 22.4691C19.7457 22.6549 19.9772 22.7894 20.231 22.8596C20.4849 22.9297 20.7525 22.9332 21.0081 22.8696L25.9333 21.6388C26.5108 21.4953 27.1132 21.4845 27.6955 21.6073C28.2777 21.73 28.8245 21.9831 29.2948 22.3476L34.4833 26.3841C36.3486 27.8353 36.5196 30.5916 34.8501 32.2588L32.5236 34.5853C30.8586 36.2503 28.3701 36.9816 26.0503 36.1648C20.1119 34.0781 14.7206 30.6788 10.2778 26.2198C5.81918 21.7778 2.41983 16.3873 0.332839 10.4496C-0.481661 8.13209 0.249589 5.64134 1.91459 3.97634L4.24109 1.64984Z" fill="white"/>
</g>
<defs>
<clipPath id="clip0_714_33">
<rect width="36" height="36" fill="white" transform="translate(0 0.5)"/>
</clipPath>
</defs>
</svg>
