<svg width="40" height="40" viewBox="0 0 40 40" fill="none" xmlns="http://www.w3.org/2000/svg">
<path fill-rule="evenodd" clip-rule="evenodd" d="M32.1416 21.075C33.32 19.878 33.9747 18.2619 33.9615 16.5822C33.9484 14.9025 33.2686 13.2968 32.0716 12.1183C31.4789 11.5348 30.777 11.0738 30.0061 10.7615C29.2353 10.4492 28.4104 10.2918 27.5787 10.2983C25.899 10.3115 24.2933 10.9913 23.1149 12.1883C22.7949 12.5083 22.3882 12.9011 21.8949 13.3667L20.5232 14.6583L19.1516 13.3667C18.6571 12.9 18.2499 12.5072 17.9299 12.1883C16.7422 11.0006 15.1313 10.3334 13.4516 10.3334C11.7719 10.3334 10.161 11.0006 8.97322 12.1883C6.52655 14.6367 6.49822 18.595 8.88322 21.055L20.5232 32.695L32.1416 21.075ZM7.55822 10.775C8.33207 10.0009 9.25083 9.38692 10.262 8.968C11.2732 8.54907 12.357 8.33345 13.4516 8.33345C14.5461 8.33345 15.6299 8.54907 16.6411 8.968C17.6523 9.38692 18.571 10.0009 19.3449 10.775C19.6482 11.0794 20.041 11.4583 20.5232 11.9117C21.0032 11.4583 21.396 11.0789 21.7016 10.7733C23.2524 9.19861 25.3653 8.30446 27.5754 8.28758C29.7855 8.2707 31.9118 9.13248 33.4866 10.6833C35.0613 12.2342 35.9554 14.3471 35.9723 16.5572C35.9892 18.7673 35.1274 20.8936 33.5766 22.4683L21.7016 34.345C21.389 34.6575 20.9652 34.833 20.5232 34.833C20.0813 34.833 19.6574 34.6575 19.3449 34.345L7.46656 22.4667C5.94329 20.8957 5.09907 18.7886 5.11622 16.6004C5.13337 14.4122 6.01052 12.3186 7.55822 10.7717V10.775Z" fill="#B7B7B7"/>
</svg>
