<svg width="208" height="40" viewBox="0 0 208 40" fill="none" xmlns="http://www.w3.org/2000/svg">
<path d="M20 3.90594L23.9051 13.2949L24.2569 14.1408L25.1702 14.2141L35.3064 15.0267L27.5837 21.642L26.8879 22.238L27.1004 23.1292L29.4599 33.0204L20.7819 27.7199L20 27.2423L19.2181 27.7199L10.5401 33.0204L12.8996 23.1292L13.1121 22.238L12.4163 21.642L4.69364 15.0267L14.8298 14.2141L15.7431 14.1408L16.0949 13.2949L20 3.90594Z" fill="#F1C644" stroke="#F1C644" stroke-width="3"/>
<path d="M62 3.90594L65.9051 13.2949L66.2569 14.1408L67.1702 14.2141L77.3064 15.0267L69.5837 21.642L68.8879 22.238L69.1004 23.1292L71.4599 33.0204L62.7819 27.7199L62 27.2423L61.2181 27.7199L52.5401 33.0204L54.8996 23.1292L55.1121 22.238L54.4163 21.642L46.6936 15.0267L56.8298 14.2141L57.7431 14.1408L58.0949 13.2949L62 3.90594Z" fill="#F1C644" stroke="#F1C644" stroke-width="3"/>
<path d="M104 3.90594L107.905 13.2949L108.257 14.1408L109.17 14.2141L119.306 15.0267L111.584 21.642L110.888 22.238L111.1 23.1292L113.46 33.0204L104.782 27.7199L104 27.2423L103.218 27.7199L94.5401 33.0204L96.8996 23.1292L97.1121 22.238L96.4163 21.642L88.6936 15.0267L98.8298 14.2141L99.7431 14.1408L100.095 13.2949L104 3.90594Z" fill="#F1C644" stroke="#F1C644" stroke-width="3"/>
<path d="M146 3.90594L149.905 13.2949L150.257 14.1408L151.17 14.2141L161.306 15.0267L153.584 21.642L152.888 22.238L153.1 23.1292L155.46 33.0204L146.782 27.7199L146 27.2423L145.218 27.7199L136.54 33.0204L138.9 23.1292L139.112 22.238L138.416 21.642L130.694 15.0267L140.83 14.2141L141.743 14.1408L142.095 13.2949L146 3.90594Z" fill="#F1C644" stroke="#F1C644" stroke-width="3"/>
<path d="M188 3.90594L191.905 13.2949L192.257 14.1408L193.17 14.2141L203.306 15.0267L195.584 21.642L194.888 22.238L195.1 23.1292L197.46 33.0204L188.782 27.7199L188 27.2423L187.218 27.7199L178.54 33.0204L180.9 23.1292L181.112 22.238L180.416 21.642L172.694 15.0267L182.83 14.2141L183.743 14.1408L184.095 13.2949L188 3.90594Z" fill="#F1C644" stroke="#F1C644" stroke-width="3"/>
</svg>
