<svg width="60" height="60" viewBox="0 0 60 60" fill="none" xmlns="http://www.w3.org/2000/svg">
<circle cx="30" cy="30" r="30" fill="#EBEBEB"/>
<g clip-path="url(#clip0_838_5)">
<path fill-rule="evenodd" clip-rule="evenodd" d="M22.277 31.473C21.8864 31.0823 21.667 30.5525 21.667 30.0001C21.667 29.4476 21.8864 28.9178 22.277 28.5271L34.0624 16.7417C34.2546 16.5428 34.4844 16.384 34.7386 16.2749C34.9928 16.1657 35.2662 16.1082 35.5428 16.1058C35.8194 16.1034 36.0937 16.1561 36.3498 16.2609C36.6058 16.3656 36.8384 16.5203 37.034 16.7159C37.2296 16.9115 37.3843 17.1441 37.4891 17.4002C37.5938 17.6562 37.6466 17.9305 37.6442 18.2071C37.6417 18.4838 37.5843 18.7571 37.4751 19.0113C37.3659 19.2655 37.2072 19.4954 37.0082 19.6876L26.6957 30.0001L37.0082 40.3126C37.3877 40.7055 37.5977 41.2317 37.593 41.778C37.5882 42.3242 37.3691 42.8468 36.9828 43.233C36.5966 43.6193 36.074 43.8384 35.5278 43.8431C34.9816 43.8479 34.4553 43.6379 34.0624 43.2584L22.277 31.473Z" fill="#5DA4E7"/>
</g>
<defs>
<clipPath id="clip0_838_5">
<rect width="50" height="50" fill="white" transform="translate(5 5)"/>
</clipPath>
</defs>
</svg>
