<svg width="60" height="60" viewBox="0 0 60 60" fill="none" xmlns="http://www.w3.org/2000/svg">
<circle cx="30" cy="30" r="30" transform="matrix(-1 0 0 1 60 0)" fill="#EBEBEB"/>
<g clip-path="url(#clip0_838_6)">
<path fill-rule="evenodd" clip-rule="evenodd" d="M37.723 31.473C38.1136 31.0823 38.333 30.5525 38.333 30.0001C38.333 29.4476 38.1136 28.9178 37.723 28.5271L25.9376 16.7417C25.7454 16.5428 25.5156 16.384 25.2614 16.2749C25.0072 16.1657 24.7338 16.1082 24.4572 16.1058C24.1806 16.1034 23.9063 16.1561 23.6502 16.2609C23.3942 16.3656 23.1616 16.5203 22.966 16.7159C22.7704 16.9115 22.6157 17.1441 22.5109 17.4002C22.4062 17.6562 22.3534 17.9305 22.3558 18.2071C22.3583 18.4838 22.4157 18.7571 22.5249 19.0113C22.6341 19.2655 22.7928 19.4954 22.9918 19.6876L33.3043 30.0001L22.9918 40.3126C22.6123 40.7055 22.4023 41.2317 22.407 41.778C22.4118 42.3242 22.6309 42.8468 23.0172 43.233C23.4034 43.6193 23.926 43.8384 24.4722 43.8431C25.0184 43.8479 25.5447 43.6379 25.9376 43.2584L37.723 31.473Z" fill="#5DA4E7"/>
</g>
<defs>
<clipPath id="clip0_838_6">
<rect width="50" height="50" fill="white" transform="matrix(-1 0 0 1 55 5)"/>
</clipPath>
</defs>
</svg>
