<svg width="20" height="20" viewBox="0 0 20 20" fill="none" xmlns="http://www.w3.org/2000/svg">
<path d="M17.1015 7.76335H2.89963C2.61227 7.76392 2.32875 7.82569 2.07016 7.94406C1.81157 8.06243 1.58458 8.23435 1.40608 8.44703C1.22877 8.65944 1.10485 8.90711 1.04366 9.17136C0.982481 9.4356 0.985634 9.70951 1.05288 9.97243L2.57562 15.8609C2.79569 16.6197 3.27445 17.2889 3.93781 17.7649C4.60139 18.2418 5.41385 18.5 6.24965 18.5H13.7495C14.5853 18.5 15.3977 18.2418 16.0613 17.7649C16.7247 17.2889 17.2034 16.6197 17.4235 15.8609L18.9463 9.97335C19.0487 9.57643 19.0038 9.1583 18.8189 8.78895C18.6339 8.4196 18.3203 8.12144 17.9304 7.94438C17.6714 7.8257 17.3874 7.76381 17.0995 7.76335M6.19321 11.3416V14.9208M10.0005 11.3416V14.9208M13.8079 11.3416V14.9208M16.6636 7.76335C16.6633 6.94004 16.4907 6.12491 16.1557 5.3648C15.8207 4.6047 15.33 3.9146 14.7118 3.33416C13.4598 2.15875 11.7659 1.4993 10.0005 1.5C8.23517 1.4993 6.54132 2.15875 5.2893 3.33416C4.67122 3.91467 4.18069 4.60481 3.8459 5.36491C3.51111 6.12501 3.33865 6.94011 3.33845 7.76335" stroke="black" stroke-width="1.875" stroke-linecap="round" stroke-linejoin="round"/>
</svg>
