<svg width="54" height="54" viewBox="0 0 54 54" fill="none" xmlns="http://www.w3.org/2000/svg">
<rect x="0.75" y="0.75" width="52.5" height="52.5" rx="14.25" stroke="#EBE9E8" stroke-width="1.5"/>
<path d="M36.875 33.5C37.3565 33.5002 37.8195 33.6857 38.168 34.018C38.5165 34.3503 38.7238 34.8039 38.7469 35.2849C38.77 35.7659 38.6073 36.2373 38.2923 36.6015C37.9773 36.9657 37.5343 37.1948 37.055 37.2412L36.875 37.25H16.875C16.3935 37.2498 15.9305 37.0643 15.582 36.732C15.2335 36.3997 15.0262 35.9461 15.0031 35.4651C14.98 34.9841 15.1427 34.5127 15.4577 34.1485C15.7727 33.7843 16.2157 33.5552 16.695 33.5088L16.875 33.5H36.875ZM36.875 24.75C37.3723 24.75 37.8492 24.9475 38.2008 25.2992C38.5525 25.6508 38.75 26.1277 38.75 26.625C38.75 27.1223 38.5525 27.5992 38.2008 27.9508C37.8492 28.3025 37.3723 28.5 36.875 28.5H16.875C16.3777 28.5 15.9008 28.3025 15.5492 27.9508C15.1975 27.5992 15 27.1223 15 26.625C15 26.1277 15.1975 25.6508 15.5492 25.2992C15.9008 24.9475 16.3777 24.75 16.875 24.75H36.875ZM36.875 16C37.3723 16 37.8492 16.1975 38.2008 16.5492C38.5525 16.9008 38.75 17.3777 38.75 17.875C38.75 18.3723 38.5525 18.8492 38.2008 19.2008C37.8492 19.5525 37.3723 19.75 36.875 19.75H16.875C16.3777 19.75 15.9008 19.5525 15.5492 19.2008C15.1975 18.8492 15 18.3723 15 17.875C15 17.3777 15.1975 16.9008 15.5492 16.5492C15.9008 16.1975 16.3777 16 16.875 16H36.875Z" fill="black"/>
</svg>
