<svg width="30" height="30" viewBox="0 0 30 30" fill="none" xmlns="http://www.w3.org/2000/svg">
<path d="M27.1876 25.8619L20.1076 18.7819C21.8089 16.7393 22.6574 14.1195 22.4763 11.4674C22.2953 8.81527 21.0988 6.33504 19.1356 4.54266C17.1725 2.75027 14.5939 1.78374 11.9363 1.84413C9.27868 1.90452 6.74666 2.98717 4.86696 4.86687C2.98726 6.74657 1.90461 9.27859 1.84422 11.9362C1.78384 14.5938 2.75037 17.1724 4.54275 19.1355C6.33513 21.0987 8.81536 22.2952 11.4675 22.4762C14.1196 22.6573 16.7394 21.8089 18.782 20.1075L25.862 27.1875L27.1876 25.8619ZM3.75008 12.1875C3.75008 10.5187 4.24493 8.8874 5.17205 7.49986C6.09918 6.11232 7.41693 5.03087 8.95869 4.39225C10.5004 3.75364 12.1969 3.58655 13.8337 3.91211C15.4704 4.23767 16.9738 5.04127 18.1538 6.22127C19.3338 7.40128 20.1374 8.9047 20.463 10.5414C20.7885 12.1781 20.6214 13.8746 19.9828 15.4164C19.3442 16.9581 18.2627 18.2759 16.8752 19.203C15.4877 20.1301 13.8564 20.625 12.1876 20.625C9.95057 20.6225 7.80591 19.7328 6.22411 18.151C4.6423 16.5692 3.75256 14.4245 3.75008 12.1875Z" fill="black"/>
</svg>
