<svg width="52" height="52" viewBox="0 0 52 52" fill="none" xmlns="http://www.w3.org/2000/svg">
<path d="M45.5224 24.3101V34.0384C45.5224 43.7667 41.6441 47.6667 31.8941 47.6667H20.2158C18.9591 47.6667 17.8107 47.6017 16.749 47.4501" stroke="#292D32" stroke-width="4" stroke-linecap="round" stroke-linejoin="round"/>
<path d="M6.58691 33.6267V24.3101" stroke="#292D32" stroke-width="4" stroke-linecap="round" stroke-linejoin="round"/>
<path d="M26.0651 26C30.0301 26 32.9551 22.7719 32.5651 18.8068L31.1134 4.33337H20.9951L19.5435 18.8068C19.1535 22.7719 22.1001 26 26.0651 26Z" stroke="#292D32" stroke-width="4" stroke-linecap="round" stroke-linejoin="round"/>
<path d="M39.7157 26C44.0923 26 47.299 22.4467 46.8657 18.0917L46.259 12.1333C45.479 6.5 43.3123 4.33337 37.6357 4.33337H31.0273L32.544 19.5217C32.934 23.0967 36.1407 26 39.7157 26Z" stroke="#292D32" stroke-width="4" stroke-linecap="round" stroke-linejoin="round"/>
<path d="M12.2849 26C15.8599 26 19.0882 23.0967 19.4348 19.5217L19.9116 14.7335L20.9516 4.33337H14.3432C8.66657 4.33337 6.49995 6.5 5.71995 12.1333L5.11322 18.0917C4.67988 22.4467 7.90822 26 12.2849 26Z" stroke="#292D32" stroke-width="4" stroke-linecap="round" stroke-linejoin="round"/>
<path d="M19.5003 41.1667C19.5003 42.7917 19.0453 44.3302 18.2436 45.6302C17.8319 46.3236 17.3336 46.9517 16.7486 47.45C16.6836 47.5367 16.6187 47.6017 16.532 47.6667C15.0153 49.0317 13.022 49.8333 10.8337 49.8333C8.19033 49.8333 5.82859 48.6417 4.26859 46.7783C4.22526 46.7133 4.16037 46.67 4.11704 46.605C3.85704 46.3017 3.6187 45.9769 3.4237 45.6302C2.62204 44.3302 2.16699 42.7917 2.16699 41.1667C2.16699 38.4367 3.42366 35.9883 5.41699 34.4067C5.78533 34.1033 6.17528 33.8433 6.58695 33.6267C7.84362 32.9117 9.29533 32.5 10.8337 32.5C13.0003 32.5 14.9503 33.28 16.4669 34.6017C16.7269 34.7967 16.9653 35.035 17.182 35.2733C18.612 36.8333 19.5003 38.8917 19.5003 41.1667Z" stroke="#292D32" stroke-width="4" stroke-miterlimit="10" stroke-linecap="round" stroke-linejoin="round"/>
<path d="M14.0621 41.1234H7.60547" stroke="#292D32" stroke-width="4" stroke-miterlimit="10" stroke-linecap="round" stroke-linejoin="round"/>
</svg>
