<svg width="52" height="52" viewBox="0 0 52 52" fill="none" xmlns="http://www.w3.org/2000/svg">
<path d="M17.333 24.7001C17.333 26.3684 18.633 27.7334 20.2147 27.7334H23.4647C24.8513 27.7334 25.978 26.5418 25.978 25.0901C25.978 23.5084 25.2847 22.9451 24.2663 22.5768L19.0663 20.7566C18.0263 20.3883 17.333 19.825 17.333 18.2433C17.333 16.7916 18.4597 15.6 19.8463 15.6H23.0963C24.6997 15.6216 25.9997 16.965 25.9997 18.6333" stroke="#292D32" stroke-width="4" stroke-linecap="round" stroke-linejoin="round"/>
<path d="M21.666 27.8419V29.4453" stroke="#292D32" stroke-width="4" stroke-linecap="round" stroke-linejoin="round"/>
<path d="M21.666 13.8882V15.5782" stroke="#292D32" stroke-width="4" stroke-linecap="round" stroke-linejoin="round"/>
<path d="M21.6447 38.9567C31.2057 38.9567 38.9563 31.2061 38.9563 21.645C38.9563 12.0841 31.2057 4.33337 21.6447 4.33337C12.0837 4.33337 4.33301 12.0841 4.33301 21.645C4.33301 31.2061 12.0837 38.9567 21.6447 38.9567Z" stroke="#292D32" stroke-width="4" stroke-linecap="round" stroke-linejoin="round"/>
<path d="M28.123 43.0734C30.073 45.8251 33.258 47.6234 36.898 47.6234C42.813 47.6234 47.623 42.8134 47.623 36.8984C47.623 33.3017 45.8464 30.1167 43.138 28.1667" stroke="#292D32" stroke-width="4" stroke-linecap="round" stroke-linejoin="round"/>
</svg>
