<svg width="52" height="52" viewBox="0 0 52 52" fill="none" xmlns="http://www.w3.org/2000/svg">
<path d="M18.7847 30.3333H8.66634C6.28301 30.3333 4.33301 32.2833 4.33301 34.6666V47.6666H18.7847V30.3333Z" stroke="#292D32" stroke-width="4" stroke-miterlimit="10" stroke-linecap="round" stroke-linejoin="round"/>
<path d="M28.881 21.6666H23.096C20.7127 21.6666 18.7627 23.6166 18.7627 26V47.6666H33.2143V26C33.2143 23.6166 31.286 21.6666 28.881 21.6666Z" stroke="#292D32" stroke-width="4" stroke-miterlimit="10" stroke-linecap="round" stroke-linejoin="round"/>
<path d="M43.3332 36.8333H33.2148V47.6666H47.6665V41.1666C47.6665 38.7833 45.7165 36.8333 43.3332 36.8333Z" stroke="#292D32" stroke-width="4" stroke-miterlimit="10" stroke-linecap="round" stroke-linejoin="round"/>
<path d="M27.1262 4.4851L28.2745 6.78175C28.4262 7.10675 28.8379 7.41008 29.1845 7.45342L31.2645 7.8001C32.5862 8.01677 32.9112 8.99173 31.9579 9.92339L30.3329 11.5484C30.0512 11.8301 29.8995 12.3501 29.9862 12.7184L30.4412 14.7118C30.8095 16.2934 29.9645 16.9001 28.5779 16.0768L26.6279 14.9284C26.2812 14.7118 25.6962 14.7118 25.3495 14.9284L23.3995 16.0768C22.0129 16.9001 21.1678 16.2934 21.5362 14.7118L21.9912 12.7184C22.0779 12.3501 21.9262 11.8084 21.6445 11.5484L20.0412 9.94508C19.0879 8.99175 19.3912 8.03839 20.7345 7.82173L22.8145 7.4751C23.1612 7.4101 23.5729 7.10677 23.7245 6.80344L24.8729 4.50673C25.5012 3.25006 26.4979 3.2501 27.1262 4.4851Z" stroke="#292D32" stroke-width="4" stroke-linecap="round" stroke-linejoin="round"/>
</svg>
